<svg xmlns="http://www.w3.org/2000/svg" width="140" height="139.988" viewBox="0 0 140 139.988">
  <g id="link-sharing-" transform="translate(-99.476 -0.041)">
    <path id="Path_33" data-name="Path 33" d="M486.131,411.321l-35.387,35.387a28.848,28.848,0,0,1-40.8,0c-.477-.478-.938-.969-1.375-1.476a27.842,27.842,0,0,1-2.011-2.589,28.414,28.414,0,0,1-4.556-10.931q-.246-1.281-.371-2.589-.134-1.394-.135-2.813a28.979,28.979,0,0,1,1.07-7.83q.367-1.316.86-2.589a28.785,28.785,0,0,1,6.518-9.979l15.438-15.438a4.314,4.314,0,1,1,6.1,6.1l-15.438,15.438a20.389,20.389,0,0,0-3.041,3.878,20.075,20.075,0,0,0-2.879,10.419,20.739,20.739,0,0,0,.193,2.813,19.689,19.689,0,0,0,.535,2.589,20.213,20.213,0,0,0,33.785,8.894l8.894-8.894,15.821-15.821,10.672-10.672a20.251,20.251,0,0,0,2.264-25.895,4.316,4.316,0,1,1,7.079-4.939,28.891,28.891,0,0,1-3.242,36.935Z" transform="translate(-302.024 -315.127)" fill="#fff"/>
    <path id="Path_34" data-name="Path 34" d="M658.031,201.625q0,.319-.009.639a28.715,28.715,0,0,1-2.4,10.931,27.835,27.835,0,0,1-1.294,2.589,28.926,28.926,0,0,1-4.749,6.239l-15.438,15.438a4.314,4.314,0,0,1-6.1-6.1l15.438-15.438c.046-.046.092-.092.135-.138a20.1,20.1,0,0,0,5.773-13.52c.009-.213.012-.426.012-.639q0-.984-.092-1.95a20.2,20.2,0,0,0-5.828-12.346c-.308-.308-.621-.6-.946-.886a20.219,20.219,0,0,0-26.7,0c-.325.282-.639.578-.946.886L579.5,222.716a20.243,20.243,0,0,0,0,28.593,4.314,4.314,0,1,1-6.1,6.1,28.879,28.879,0,0,1,0-40.8l35.387-35.387a28.876,28.876,0,0,1,44.934,5.215,27.693,27.693,0,0,1,1.43,2.589,28.606,28.606,0,0,1,2.813,10.643Q658.029,200.645,658.031,201.625Z" transform="translate(-418.555 -172.75)" fill="#fff"/>
    <path id="Path_39" data-name="Path 39" d="M775.006,256.988a5.814,5.814,0,0,1-.115,1.151,5.764,5.764,0,1,1,.115-1.151Z" transform="translate(-569.964 -217.64)" fill="#fff"/>
    <path id="Path_40" data-name="Path 40" d="M480.006,559.988a5.819,5.819,0,0,1-.115,1.149,5.764,5.764,0,1,1,.115-1.149Z" transform="translate(-339.751 -454.553)" fill="#fff"/>
  </g>
</svg>
